<svg xmlns="http://www.w3.org/2000/svg" viewBox="0 0 1120 300" role="img" aria-labelledby="title description">
  <title id="title">SheetIngest</title>
  <desc id="description">A spreadsheet with an arrow showing data flowing into the import.</desc>
  <defs>
    <linearGradient id="tile" x1="0" y1="0" x2="1" y2="1">
      <stop offset="0" stop-color="#4D55F2" />
      <stop offset="1" stop-color="#343FCB" />
    </linearGradient>
  </defs>
  <rect x="20" y="20" width="260" height="260" rx="62" fill="url(#tile)" />
  <path d="M91 55h91l43 43v137a18 18 0 0 1-18 18H91a18 18 0 0 1-18-18V73a18 18 0 0 1 18-18Z" fill="#fff" />
  <path d="M182 55v30a13 13 0 0 0 13 13h30Z" fill="#DDE3FF" />
  <rect x="99" y="119" width="104" height="91" rx="9" fill="#EEF1FF" />
  <path d="M99 128a9 9 0 0 1 9-9h86a9 9 0 0 1 9 9v15H99Z" fill="#10B8AE" />
  <path d="M133.5 143v67m35-67v67M99 165.5h104M99 188h104" fill="none" stroke="#AEB8F4" stroke-width="4" />
  <circle cx="226" cy="225" r="42" fill="#09B4AA" stroke="#fff" stroke-width="7" />
  <path d="M226 201v35m-14-13 14 14 14-14M211 247h30" fill="none" stroke="#fff" stroke-linecap="round" stroke-linejoin="round" stroke-width="7" />
  <text x="326" y="166" fill="#101B37" font-family="Inter, ui-sans-serif, system-ui, -apple-system, BlinkMacSystemFont, 'Segoe UI', sans-serif" font-size="112" font-weight="750" letter-spacing="-5">Sheet<tspan fill="#4249DF">Ingest</tspan></text>
  <text x="334" y="219" fill="#56627A" font-family="Inter, ui-sans-serif, system-ui, -apple-system, BlinkMacSystemFont, 'Segoe UI', sans-serif" font-size="21" font-weight="700" letter-spacing="5">SPREADSHEET IMPORT FOR REACT</text>
</svg>
